<svg xmlns="http://www.w3.org/2000/svg" viewBox="0 0 960 540" width="960" height="540" font-family="Inter, system-ui, sans-serif" role="img" aria-label="FinOps + Security toda sexta">
<title>FinOps + Security toda sexta</title>
<defs><marker id="arrow" viewBox="0 0 10 10" refX="9" refY="5" markerWidth="7" markerHeight="7" orient="auto-start-reverse"><path d="M0,0 L10,5 L0,10 z" fill="#71717a"/></marker>
<radialGradient id="glow" cx="80%" cy="0%" r="70%"><stop offset="0" stop-color="#38bdf8" stop-opacity=".10"/><stop offset="1" stop-color="#38bdf8" stop-opacity="0"/></radialGradient></defs>
<rect width="960" height="540" fill="#0e0e10"/><rect width="960" height="540" fill="url(#glow)"/>
<text x="40" y="52" font-size="22" font-weight="700" fill="#f4f4f5" font-family="Space Grotesk, Inter, sans-serif">FinOps + Security toda sexta</text>
<text x="40" y="76" font-size="13" fill="#a1a1aa">Coleta read-only da conta, findings priorizados por impacto e severidade.</text>
<path d="M185,190 L260,190" fill="none" stroke="#52525b" stroke-width="1.5" marker-end="url(#arrow)"/>
<path d="M340,222 L340,298" fill="none" stroke="#52525b" stroke-width="1.5" marker-end="url(#arrow)"/><rect x="304.4" y="240" width="71.19999999999999" height="17" rx="4" fill="#0e0e10"/><text x="340" y="252" text-anchor="middle" font-size="11" fill="#a1a1aa" font-family="JetBrains Mono, ui-monospace, monospace">read-only</text>
<path d="M420,190 L485,190" fill="none" stroke="#52525b" stroke-width="1.5" marker-end="url(#arrow)"/>
<path d="M655,190 L735,190" fill="none" stroke="#52525b" stroke-width="1.5" marker-end="url(#arrow)"/>
<path d="M570,222 L570,298" fill="none" stroke="#52525b" stroke-width="1.5" stroke-dasharray="5 5" marker-end="url(#arrow)"/><rect x="558.2" y="240" width="23.6" height="17" rx="4" fill="#0e0e10"/><text x="570" y="252" text-anchor="middle" font-size="11" fill="#a1a1aa" font-family="JetBrains Mono, ui-monospace, monospace">v1</text>
<path d="M810,298 L810,222" fill="none" stroke="#52525b" stroke-width="1.5" marker-end="url(#arrow)"/>
<path d="M810,423 L810,362" fill="none" stroke="#52525b" stroke-width="1.5" marker-end="url(#arrow)"/>
<g><rect x="35" y="158" width="150" height="64" rx="12" fill="#1c1608" stroke="#f59e0b" stroke-width="1.5"/><text x="110" y="186" text-anchor="middle" font-size="14" font-weight="600" fill="#f4f4f5">EventBridge</text><text x="110" y="205" text-anchor="middle" font-size="11" fill="#a1a1aa" font-family="JetBrains Mono, ui-monospace, monospace">sexta 8h BRT</text></g>
<g><rect x="260" y="158" width="160" height="64" rx="12" fill="#1c1608" stroke="#f59e0b" stroke-width="1.5"/><text x="340" y="186" text-anchor="middle" font-size="14" font-weight="600" fill="#f4f4f5">Lambda coleta</text><text x="340" y="205" text-anchor="middle" font-size="11" fill="#a1a1aa" font-family="JetBrains Mono, ui-monospace, monospace">boto3 paralelo</text></g>
<g><rect x="485" y="158" width="170" height="64" rx="12" fill="#0b1a22" stroke="#38bdf8" stroke-width="1.5"/><text x="570" y="186" text-anchor="middle" font-size="14" font-weight="600" fill="#f4f4f5">Motor de regras</text><text x="570" y="205" text-anchor="middle" font-size="11" fill="#a1a1aa" font-family="JetBrains Mono, ui-monospace, monospace">~600 linhas</text></g>
<g><rect x="735" y="158" width="150" height="64" rx="12" fill="#0a1a14" stroke="#34d399" stroke-width="1.5"/><text x="810" y="186" text-anchor="middle" font-size="14" font-weight="600" fill="#f4f4f5">DynamoDB</text><text x="810" y="205" text-anchor="middle" font-size="11" fill="#a1a1aa" font-family="JetBrains Mono, ui-monospace, monospace">raw + analysis</text></g>
<g><rect x="250" y="298" width="180" height="64" rx="12" fill="#151518" stroke="#a1a1aa" stroke-width="1.5"/><text x="340" y="326" text-anchor="middle" font-size="14" font-weight="600" fill="#f4f4f5">APIs AWS</text><text x="340" y="345" text-anchor="middle" font-size="11" fill="#a1a1aa" font-family="JetBrains Mono, ui-monospace, monospace">CE · IAM · GuardDuty</text></g>
<g><rect x="485" y="298" width="170" height="64" rx="12" fill="#170d22" stroke="#c084fc" stroke-width="1.5"/><text x="570" y="326" text-anchor="middle" font-size="14" font-weight="600" fill="#f4f4f5">Bedrock</text><text x="570" y="345" text-anchor="middle" font-size="11" fill="#a1a1aa" font-family="JetBrains Mono, ui-monospace, monospace">v1 · removido</text></g>
<g><rect x="735" y="298" width="150" height="64" rx="12" fill="#1c1608" stroke="#f59e0b" stroke-width="1.5"/><text x="810" y="326" text-anchor="middle" font-size="14" font-weight="600" fill="#f4f4f5">API Gateway</text><text x="810" y="345" text-anchor="middle" font-size="11" fill="#a1a1aa" font-family="JetBrains Mono, ui-monospace, monospace">token no SSM</text></g>
<g><rect x="725" y="423" width="170" height="64" rx="12" fill="#1c1608" stroke="#f59e0b" stroke-width="1.5"/><text x="810" y="451" text-anchor="middle" font-size="14" font-weight="600" fill="#f4f4f5">CloudFront + S3</text><text x="810" y="470" text-anchor="middle" font-size="11" fill="#a1a1aa" font-family="JetBrains Mono, ui-monospace, monospace">dashboard</text></g>
<text x="40" y="516" font-size="11" fill="#71717a" font-family="JetBrains Mono, ui-monospace, monospace">v1 com LLM: ~US$ 1,70/mês e saída variável. v2 com regras: ~US$ 0,80 e reprodutível.</text>
<text x="920" y="516" text-anchor="end" font-size="11" fill="#52525b" font-family="JetBrains Mono, ui-monospace, monospace">cloudbymcn.com</text>
</svg>
