<svg xmlns="http://www.w3.org/2000/svg" viewBox="0 0 960 540" width="960" height="540" font-family="Inter, system-ui, sans-serif" role="img" aria-label="MP4 fast start sem mudar URL">
<title>MP4 fast start sem mudar URL</title>
<defs><marker id="arrow" viewBox="0 0 10 10" refX="9" refY="5" markerWidth="7" markerHeight="7" orient="auto-start-reverse"><path d="M0,0 L10,5 L0,10 z" fill="#71717a"/></marker>
<radialGradient id="glow" cx="80%" cy="0%" r="70%"><stop offset="0" stop-color="#38bdf8" stop-opacity=".10"/><stop offset="1" stop-color="#38bdf8" stop-opacity="0"/></radialGradient></defs>
<rect width="960" height="540" fill="#0e0e10"/><rect width="960" height="540" fill="url(#glow)"/>
<text x="40" y="52" font-size="22" font-weight="700" fill="#f4f4f5" font-family="Space Grotesk, Inter, sans-serif">MP4 fast start sem mudar URL</text>
<text x="40" y="76" font-size="13" fill="#a1a1aa">Otimiza milhares de vídeos no S3 e troca o arquivo por baixo da mesma key.</text>
<path d="M180,180 L255,180" fill="none" stroke="#52525b" stroke-width="1.5" marker-end="url(#arrow)"/><rect x="175.1" y="160" width="84.8" height="17" rx="4" fill="#0e0e10"/><text x="217.5" y="172" text-anchor="middle" font-size="11" fill="#a1a1aa" font-family="JetBrains Mono, ui-monospace, monospace">1 job/vídeo</text>
<path d="M405,180 L480,180" fill="none" stroke="#52525b" stroke-width="1.5" marker-end="url(#arrow)"/>
<path d="M620,180 L715,180" fill="none" stroke="#52525b" stroke-width="1.5" marker-end="url(#arrow)"/><rect x="635.3" y="160" width="64.4" height="17" rx="4" fill="#0e0e10"/><text x="667.5" y="172" text-anchor="middle" font-size="11" fill="#a1a1aa" font-family="JetBrains Mono, ui-monospace, monospace">manifest</text>
<path d="M110,212 L110,288" fill="none" stroke="#52525b" stroke-width="1.5" marker-end="url(#arrow)"/>
<path d="M110,352 L110,418" fill="none" stroke="#52525b" stroke-width="1.5" marker-end="url(#arrow)"/>
<path d="M790,212 L790,288" fill="none" stroke="#52525b" stroke-width="1.5" marker-end="url(#arrow)"/>
<path d="M715,320 L635,320" fill="none" stroke="#52525b" stroke-width="1.5" marker-end="url(#arrow)"/><rect x="632.6" y="300" width="84.8" height="17" rx="4" fill="#0e0e10"/><text x="675" y="312" text-anchor="middle" font-size="11" fill="#a1a1aa" font-family="JetBrains Mono, ui-monospace, monospace">copy_object</text>
<path d="M550,352 L550,418" fill="none" stroke="#52525b" stroke-width="1.5" marker-end="url(#arrow)"/>
<path d="M475,450 L395,450" fill="none" stroke="#52525b" stroke-width="1.5" marker-end="url(#arrow)"/>
<g><rect x="40" y="148" width="140" height="64" rx="12" fill="#1c1608" stroke="#f59e0b" stroke-width="1.5"/><text x="110" y="176" text-anchor="middle" font-size="14" font-weight="600" fill="#f4f4f5">S3</text><text x="110" y="195" text-anchor="middle" font-size="11" fill="#a1a1aa" font-family="JetBrains Mono, ui-monospace, monospace">originais .mp4</text></g>
<g><rect x="255" y="148" width="150" height="64" rx="12" fill="#1c1608" stroke="#f59e0b" stroke-width="1.5"/><text x="330" y="176" text-anchor="middle" font-size="14" font-weight="600" fill="#f4f4f5">MediaConvert</text><text x="330" y="195" text-anchor="middle" font-size="11" fill="#a1a1aa" font-family="JetBrains Mono, ui-monospace, monospace">moov no início</text></g>
<g><rect x="480" y="148" width="140" height="64" rx="12" fill="#1c1608" stroke="#f59e0b" stroke-width="1.5"/><text x="550" y="176" text-anchor="middle" font-size="14" font-weight="600" fill="#f4f4f5">S3</text><text x="550" y="195" text-anchor="middle" font-size="11" fill="#a1a1aa" font-family="JetBrains Mono, ui-monospace, monospace">_mp4_opt/</text></g>
<g><rect x="715" y="148" width="150" height="64" rx="12" fill="#1c1608" stroke="#f59e0b" stroke-width="1.5"/><text x="790" y="176" text-anchor="middle" font-size="14" font-weight="600" fill="#f4f4f5">S3 Batch</text><text x="790" y="195" text-anchor="middle" font-size="11" fill="#a1a1aa" font-family="JetBrains Mono, ui-monospace, monospace">Invoke Lambda</text></g>
<g><rect x="40" y="288" width="140" height="64" rx="12" fill="#1c1608" stroke="#f59e0b" stroke-width="1.5"/><text x="110" y="316" text-anchor="middle" font-size="14" font-weight="600" fill="#f4f4f5">S3 Batch</text><text x="110" y="335" text-anchor="middle" font-size="11" fill="#a1a1aa" font-family="JetBrains Mono, ui-monospace, monospace">Copy</text></g>
<g><rect x="40" y="418" width="140" height="64" rx="12" fill="#0a1a14" stroke="#34d399" stroke-width="1.5"/><text x="110" y="446" text-anchor="middle" font-size="14" font-weight="600" fill="#f4f4f5">S3</text><text x="110" y="465" text-anchor="middle" font-size="11" fill="#a1a1aa" font-family="JetBrains Mono, ui-monospace, monospace">backup</text></g>
<g><rect x="715" y="288" width="150" height="64" rx="12" fill="#1c1608" stroke="#f59e0b" stroke-width="1.5"/><text x="790" y="316" text-anchor="middle" font-size="14" font-weight="600" fill="#f4f4f5">AWS Lambda</text><text x="790" y="335" text-anchor="middle" font-size="11" fill="#a1a1aa" font-family="JetBrains Mono, ui-monospace, monospace">sobrescreve</text></g>
<g><rect x="465" y="288" width="170" height="64" rx="12" fill="#0a1a14" stroke="#34d399" stroke-width="1.5"/><text x="550" y="316" text-anchor="middle" font-size="14" font-weight="600" fill="#f4f4f5">S3</text><text x="550" y="335" text-anchor="middle" font-size="11" fill="#a1a1aa" font-family="JetBrains Mono, ui-monospace, monospace">mesma key, novo MP4</text></g>
<g><rect x="475" y="418" width="150" height="64" rx="12" fill="#1c1608" stroke="#f59e0b" stroke-width="1.5"/><text x="550" y="446" text-anchor="middle" font-size="14" font-weight="600" fill="#f4f4f5">CloudFront</text><text x="550" y="465" text-anchor="middle" font-size="11" fill="#a1a1aa" font-family="JetBrains Mono, ui-monospace, monospace">Origin Shield</text></g>
<g><rect x="245" y="418" width="150" height="64" rx="12" fill="#18181b" stroke="#f4f4f5" stroke-width="1.5"/><text x="320" y="446" text-anchor="middle" font-size="14" font-weight="600" fill="#f4f4f5">CRM · site</text><text x="320" y="465" text-anchor="middle" font-size="11" fill="#a1a1aa" font-family="JetBrains Mono, ui-monospace, monospace">URLs intactas</text></g>
<text x="40" y="516" font-size="11" fill="#71717a" font-family="JetBrains Mono, ui-monospace, monospace">Rollback = Batch Copy invertido (backup → original).</text>
<text x="920" y="516" text-anchor="end" font-size="11" fill="#52525b" font-family="JetBrains Mono, ui-monospace, monospace">cloudbymcn.com</text>
</svg>
